<svg xmlns="http://www.w3.org/2000/svg" version="1.1" xmlns:xlink="http://www.w3.org/1999/xlink" width="4096" height="4096"><svg id="SvgjsSvg1298" xmlns="http://www.w3.org/2000/svg" viewBox="0 0 4096 4096">
  <defs>
    <style>
      .cls-1 {
        fill: #ff6565;
      }
    </style>
  </defs>
  <path id="SvgjsPath1297" class="cls-1" d="M4091.64,1852.13c0-111.43-27.22-209.97-81.67-295.5-54.45-85.53-128.35-152.27-221.65-200.21-93.36-47.94-200.93-71.98-322.72-71.98h-1341.55l-151.75,1073.22H715.89l83.33-587.14h913.11l68.73-486.07h-911.85l83.88-598.89h1405.24l68.58-497.7H381.49L4.31,2855.35h1897.6l-155.05,1096.58h1353.17c165.88,0,314.95-35.6,447.16-106.91,132.21-71.31,236.53-169.13,313.03-293.57,76.49-124.44,114.74-265.68,114.74-423.85,0-45.35-3.55-126.24-38.91-223.58-62.18-171.16-181.36-270.5-238.15-311.94,60.41-45.76,214.84-172.18,308.14-370.49,21.51-45.71,80.39-172.78,85.28-332.23.54-17.7.31-30.49.31-37.23ZM3308.08,3292.82c-29.82,55.77-70.65,99.2-122.45,130.28-51.86,31.14-110.16,46.68-174.97,46.68h-589.11l91.27-645.51h583.37c75.17,0,136.73,24.63,184.67,73.9,47.94,49.27,71.98,114.08,71.98,194.43s-14.94,144.5-44.75,200.21ZM3420.83,2171.06c-27.22,57.04-64.15,102.4-110.77,136.06-46.68,33.73-101.13,50.53-163.35,50.53h-567.93l85.77-606.6h563.83c67.34,0,123.05,20.12,167.14,60.29,44.09,40.17,66.14,99.14,66.14,176.9,0,64.81-13.61,125.76-40.84,182.8Z"></path>
</svg><style>@media (prefers-color-scheme: light) { :root { filter: none; } }
@media (prefers-color-scheme: dark) { :root { filter: none; } }
</style></svg>