<?xml version="1.0" encoding="UTF-8"?>
<svg xmlns="http://www.w3.org/2000/svg" viewBox="0 0 500 360">
  <defs>
    <style>
      .cls-1 {
        fill: #b8d4ff;
      }

      .cls-2 {
        opacity: .25;
      }

      .cls-2, .cls-3, .cls-4, .cls-5 {
        fill: #fff;
      }

      .cls-3 {
        opacity: .5;
      }

      .cls-4 {
        opacity: .75;
      }
    </style>
  </defs>
  <g id="BG">
    <rect class="cls-1" width="500" height="360"/>
  </g>
  <g id="Layer_1" data-name="Layer 1">
    <g>
      <circle class="cls-5" cx="168.3" cy="81.48" r="26.39"/>
      <circle class="cls-4" cx="144.71" cy="86.51" r="26.39"/>
      <circle class="cls-3" cx="119.02" cy="97.84" r="26.39"/>
      <circle class="cls-2" cx="94.37" cy="111.27" r="26.39"/>
    </g>
    <path class="cls-5" d="M375.34,256.02l-8.72-48.64-36.25,33.59-48.64,8.72,33.59,36.25,8.72,48.64,36.25-33.59,48.64-8.72-33.59-36.25ZM339.71,287.77c-9.27-3.1-14.27-13.13-11.17-22.4s13.13-14.27,22.4-11.17c9.27,3.1,14.27,13.13,11.17,22.4-3.1,9.27-13.13,14.27-22.4,11.17Z"/>
    <path class="cls-5" d="M431.77,46.46l-41.69-26.53.16,49.42-26.53,41.69,49.42-.16,41.69,26.53-.16-49.42,26.53-41.69-49.42.16ZM430.99,94.17c-8.56,4.72-19.33,1.61-24.05-6.95-4.72-8.56-1.61-19.33,6.95-24.05,8.56-4.72,19.33-1.61,24.05,6.95,4.72,8.56,1.61,19.33-6.95,24.05Z"/>
    <path class="cls-5" d="M121.46,213.23l-44.01-22.48,4.82,49.18-22.48,44.01,49.18-4.82,44.01,22.48-4.82-49.18,22.48-44.01-49.18,4.82ZM125.18,260.81c-8.08,5.51-19.09,3.42-24.6-4.65-5.51-8.08-3.42-19.09,4.65-24.6,8.08-5.51,19.09-3.42,24.6,4.65,5.51,8.08,3.42,19.09-4.65,24.6Z"/>
    <path class="cls-5" d="M323.35,138.24l-27.61-31.11-41.52-2.47-31.11,27.61-2.47,41.52,27.61,31.11,41.52,2.47,31.11-27.61,2.47-41.52ZM249.6,185.44l-11.39-12.83,12.06-10.71,11.39,12.83-12.06,10.71ZM289.56,169.02c-2.76-.29-3.78-.53-12.15-3.02-4.1-1.15-6.61-.64-9.55,1.97-.77.68-1.41,1.37-2.32,2.4l-10.54-11.87c1.13-.78,1.2-.84,3.05-2.48,4.4-3.91,7.63-5.41,11.94-5.58,3.15-.05,3.98.12,10.75,2.21,4.63,1.48,6.87,1.32,8.98-.55,3-2.66,2.8-6.48-.6-10.31-2.55-2.87-5.44-4.07-8.49-3.53-1.59.27-2.71.81-4.91,2.31l-10.39-14.28c5.1-3.38,8.49-4.57,13.32-4.53,7.5-.04,14.71,3.72,21.22,11.05,10.42,11.74,11.39,24.01,2.58,31.82-3.89,3.46-8.03,4.84-12.89,4.37Z"/>
  </g>
</svg>