<?xml version="1.0" encoding="UTF-8"?>
<svg id="Content" xmlns="http://www.w3.org/2000/svg" viewBox="0 0 1150.91 627.35">
  <defs>
    <style>
      .cls-1 {
        fill: #d45454;
      }
    </style>
  </defs>
  <g>
    <path class="cls-1" d="M435.19,187.66c-9.39,0-16.98-1.69-22.77-5.06-5.8-3.37-8.69-9.24-8.69-17.6,0-1.76.22-4.73.66-8.91.44-4.18,1.1-9.27,1.98-15.29.88-6.01,1.83-12.65,2.86-19.91,1.02-7.26,2.12-14.85,3.3-22.77h-12.32l3.52-25.08h12.32l16.94-35.86h24.86l-7.04,35.86h26.18l-3.52,25.08h-26.18c-1.47,10.27-2.83,19.44-4.07,27.5-1.25,8.07-2.2,14.67-2.86,19.8-.66,5.14-.99,8.36-.99,9.68,0,4.26,1.1,6.97,3.3,8.14,2.2,1.18,4.76,1.76,7.7,1.76,1.61,0,3.85-.33,6.71-.99,2.86-.66,5.24-1.35,7.15-2.09l-2.86,21.34c-2.2.88-4.88,1.65-8.03,2.31-3.16.66-6.35,1.17-9.57,1.54-3.23.36-6.09.55-8.58.55Z"/>
    <path class="cls-1" d="M480.73,185.46l22-158.4h34.76l-8.36,58.96c2.49-2.64,5.35-5.09,8.58-7.37,3.22-2.27,7-4.14,11.33-5.61,4.32-1.46,9.13-2.2,14.41-2.2,10.12,0,18.15,2.57,24.09,7.7,5.94,5.14,8.91,12.32,8.91,21.56,0,1.91-.33,5.72-.99,11.44-.66,5.72-1.84,14.45-3.52,26.18-1.69,11.74-4,27.65-6.93,47.74h-34.76c1.9-13.34,3.52-24.56,4.84-33.66,1.32-9.09,2.38-16.53,3.19-22.33.8-5.79,1.35-10.23,1.65-13.31.29-3.08.44-5.28.44-6.6,0-4.4-1.21-7.73-3.63-10.01-2.42-2.27-5.83-3.41-10.23-3.41-3.52,0-6.82.88-9.9,2.64-3.08,1.76-5.65,4.15-7.7,7.15-2.06,3.01-3.38,6.42-3.96,10.23l-9.68,69.3h-34.54Z"/>
    <path class="cls-1" d="M651.23,187.66c-8.36,0-15.37-1.84-21.01-5.5-5.65-3.66-9.87-8.83-12.65-15.51-2.79-6.67-4.18-14.48-4.18-23.43,0-9.97,1.17-19.32,3.52-28.05,2.34-8.72,5.75-16.42,10.23-23.1,4.47-6.67,10.01-11.88,16.61-15.62,6.6-3.74,14.15-5.61,22.66-5.61,6.6,0,12.57,1.4,17.93,4.18,5.35,2.79,9.57,6.68,12.65,11.66h1.1l7.26-13.64h25.74c-1.03,6.6-2.13,13.61-3.3,21.01-1.18,7.41-2.28,14.71-3.3,21.89-1.03,7.19-1.95,13.83-2.75,19.91-.81,6.09-1.47,11.19-1.98,15.29-.52,4.11-.77,6.75-.77,7.92,0,1.76.47,3.16,1.43,4.18.95,1.03,2.38,1.54,4.29,1.54,1.46,0,3.04-.29,4.73-.88,1.68-.58,3.04-1.24,4.07-1.98l-2.86,20.9c-2.5,1.32-5.61,2.46-9.35,3.41-3.74.95-7.45,1.43-11.11,1.43-4.4,0-8.36-.55-11.88-1.65-3.52-1.1-6.38-2.89-8.58-5.39-2.2-2.49-3.67-5.79-4.4-9.9-4.11,4.99-9.1,9.06-14.96,12.21-5.87,3.15-12.25,4.73-19.14,4.73ZM664.21,164.78c4.25,0,7.92-.99,11-2.97s5.61-4.69,7.59-8.14c1.98-3.44,3.33-7.44,4.07-11.99,1.32-9.38,2.23-16.09,2.75-20.13.51-4.03.77-6.78.77-8.25,0-6.01-1.47-10.67-4.4-13.97-2.94-3.3-7.04-4.95-12.32-4.95-4.25,0-7.96,1.03-11.11,3.08-3.16,2.06-5.72,4.92-7.7,8.58-1.98,3.67-3.34,7.78-4.07,12.32-1.18,8.07-1.98,14.3-2.42,18.7-.44,4.4-.66,7.48-.66,9.24,0,5.72,1.43,10.23,4.29,13.53,2.86,3.3,6.93,4.95,12.21,4.95Z"/>
    <path class="cls-1" d="M747.81,185.46l15.84-112.42h26.18l1.1,16.28c2.34-2.78,5.31-5.61,8.91-8.47,3.59-2.86,7.92-5.24,12.98-7.15,5.06-1.9,11.04-2.86,17.93-2.86,10.26,0,18.37,2.57,24.31,7.7,5.94,5.14,8.91,12.32,8.91,21.56,0,1.18-.11,2.86-.33,5.06-.22,2.2-.59,5.21-1.1,9.02-.52,3.82-1.21,8.8-2.09,14.96-.88,6.16-1.98,13.86-3.3,23.1-1.32,9.24-2.94,20.32-4.84,33.22h-34.76c1.9-12.61,3.44-23.21,4.62-31.79,1.17-8.58,2.12-15.54,2.86-20.9.73-5.35,1.32-9.53,1.76-12.54.44-3,.73-5.24.88-6.71.14-1.46.22-2.64.22-3.52,0-4.4-1.25-7.81-3.74-10.23-2.5-2.42-5.94-3.63-10.34-3.63-3.52,0-6.82.88-9.9,2.64-3.08,1.76-5.65,4.15-7.7,7.15-2.06,3.01-3.38,6.42-3.96,10.23l-9.68,69.3h-34.76Z"/>
  </g>
  <g>
    <path class="cls-1" d="M703.65,331.94c-8.36,0-15.37-1.84-21.01-5.5-5.65-3.67-9.87-8.83-12.65-15.51-2.79-6.67-4.18-14.48-4.18-23.43,0-9.97,1.17-19.32,3.52-28.05,2.34-8.72,5.75-16.42,10.23-23.1,4.47-6.67,10.01-11.88,16.61-15.62,6.6-3.74,14.15-5.61,22.66-5.61,6.6,0,12.57,1.4,17.93,4.18,5.35,2.79,9.57,6.68,12.65,11.66h1.1l7.26-13.64h25.74c-1.03,6.6-2.13,13.61-3.3,21.01-1.18,7.41-2.28,14.71-3.3,21.89-1.03,7.19-1.95,13.83-2.75,19.91-.81,6.09-1.47,11.19-1.98,15.29-.52,4.11-.77,6.75-.77,7.92,0,1.76.47,3.16,1.43,4.18.95,1.03,2.38,1.54,4.29,1.54,1.46,0,3.04-.29,4.73-.88,1.68-.58,3.04-1.24,4.07-1.98l-2.86,20.9c-2.5,1.32-5.61,2.46-9.35,3.41-3.74.95-7.45,1.43-11.11,1.43-4.4,0-8.36-.55-11.88-1.65-3.52-1.1-6.38-2.89-8.58-5.39-2.2-2.49-3.67-5.79-4.4-9.9-4.11,4.99-9.1,9.06-14.96,12.21-5.87,3.15-12.25,4.73-19.14,4.73ZM716.63,309.06c4.25,0,7.92-.99,11-2.97s5.61-4.69,7.59-8.14c1.98-3.44,3.33-7.44,4.07-11.99,1.32-9.38,2.23-16.09,2.75-20.13.51-4.03.77-6.78.77-8.25,0-6.01-1.47-10.67-4.4-13.97-2.94-3.3-7.04-4.95-12.32-4.95-4.25,0-7.96,1.03-11.11,3.08-3.16,2.06-5.72,4.92-7.7,8.58-1.98,3.67-3.34,7.78-4.07,12.32-1.18,8.07-1.98,14.3-2.42,18.7-.44,4.4-.66,7.48-.66,9.24,0,5.72,1.43,10.23,4.29,13.53,2.86,3.3,6.93,4.95,12.21,4.95Z"/>
    <path class="cls-1" d="M809.25,370.66c-4.11,0-7.78-.26-11-.77-3.22-.52-5.86-1.29-7.92-2.31l3.08-23.98c1.47.73,3.63,1.43,6.49,2.09,2.86.66,5.61.99,8.25.99,3.52,0,6.63-.81,9.35-2.42,2.71-1.62,5.17-3.96,7.37-7.04,2.2-3.08,4.1-6.68,5.72-10.78l-27.06-109.12h36.96l13.42,67.76h1.54l31.02-67.76h34.1l-54.34,105.82c-4.55,8.8-9.68,16.79-15.4,23.98-5.72,7.18-12.07,12.9-19.03,17.16-6.97,4.25-14.49,6.38-22.55,6.38Z"/>
    <path class="cls-1" d="M969.41,331.94c-10.42,0-19.4-1.95-26.95-5.83-7.56-3.88-13.35-9.31-17.38-16.28-4.04-6.96-6.05-15.21-6.05-24.75s1.32-17.82,3.96-26.18c2.64-8.36,6.6-15.84,11.88-22.44,5.28-6.6,11.99-11.8,20.13-15.62,8.14-3.81,17.71-5.72,28.71-5.72h3.96c9.38,0,17.56,1.69,24.53,5.06,6.96,3.38,12.35,8.11,16.17,14.19,3.81,6.09,5.72,13.24,5.72,21.45,0,2.2-.11,4.44-.33,6.71-.22,2.28-.52,4.73-.88,7.37-.37,2.64-.85,5.65-1.43,9.02h-75.9c-.29,1.76-.55,3.63-.77,5.61s-.33,3.71-.33,5.17c0,5.87,1.68,10.56,5.06,14.08,3.37,3.52,8.21,5.28,14.52,5.28,4.98,0,9.13-1.02,12.43-3.08,3.3-2.05,5.83-4.73,7.59-8.03,1.76-3.3,2.93-6.71,3.52-10.23h32.34c-1.18,8.8-4.37,16.54-9.57,23.21-5.21,6.68-11.92,11.85-20.13,15.51-8.22,3.66-17.53,5.5-27.94,5.5h-2.86ZM958.19,260.88h41.14c.29-1.17.47-2.23.55-3.19.07-.95.11-2.01.11-3.19,0-5.13-1.54-9.16-4.62-12.1-3.08-2.93-7.34-4.4-12.76-4.4-6.02,0-11.26,1.95-15.73,5.83-4.48,3.89-7.37,9.57-8.69,17.05Z"/>
    <path class="cls-1" d="M1046.41,329.74l15.84-112.42h25.96l1.54,16.5c.44-.73,1.46-2.09,3.08-4.07,1.61-1.98,3.81-4.1,6.6-6.38,2.78-2.27,6.23-4.21,10.34-5.83,4.1-1.61,8.72-2.42,13.86-2.42,8.94,0,15.73,2.42,20.35,7.26,4.62,4.84,6.93,11.22,6.93,19.14,0,3.52-.33,7.08-.99,10.67-.66,3.6-1.43,6.64-2.31,9.13h-28.82c.29-1.46.47-2.89.55-4.29.07-1.39.11-2.53.11-3.41,0-2.34-.41-4.51-1.21-6.49-.81-1.98-2.09-3.52-3.85-4.62-1.76-1.1-4.04-1.65-6.82-1.65-2.5,0-4.77.52-6.82,1.54-2.06,1.03-3.78,2.42-5.17,4.18-1.4,1.76-2.5,3.74-3.3,5.94-.81,2.2-1.43,4.55-1.87,7.04l-9.9,70.18h-34.1Z"/>
  </g>
  <g id="EB">
    <path class="cls-1" d="M646.33,295.31c0-17.62-4.31-33.2-12.92-46.73-8.61-13.52-20.3-24.08-35.05-31.66-14.76-7.58-31.77-11.38-51.03-11.38h-212.14l-24,169.71H112.52l13.18-92.85h144.39l10.87-76.86h-144.19l13.26-94.7h222.21l10.84-78.7H59.64L0,453.95h300.07l-24.52,173.4h213.98c26.23,0,49.8-5.63,70.71-16.91,20.91-11.28,37.4-26.74,49.5-46.42,12.1-19.68,18.14-42.01,18.14-67.02,0-7.17-.56-19.96-6.15-35.36-9.83-27.07-28.68-42.77-37.66-49.33,9.55-7.24,33.97-27.23,48.73-58.59,3.4-7.23,12.71-27.32,13.49-52.54.09-2.8.05-4.82.05-5.89ZM522.43,523.12c-4.71,8.82-11.17,15.69-19.36,20.6-8.2,4.92-17.42,7.38-27.67,7.38h-93.16l14.43-102.07h92.25c11.89,0,21.62,3.9,29.2,11.69,7.58,7.79,11.38,18.04,11.38,30.75s-2.36,22.85-7.08,31.66ZM540.26,345.74c-4.31,9.02-10.14,16.19-17.52,21.52-7.38,5.33-15.99,7.99-25.83,7.99h-89.81l13.56-95.92h89.16c10.65,0,19.46,3.18,26.43,9.53,6.97,6.35,10.46,15.68,10.46,27.97,0,10.25-2.15,19.89-6.46,28.91Z"/>
  </g>
</svg>